<?xml version="1.0" encoding="utf-8"?>
<!-- Generator: Adobe Illustrator 25.2.3, SVG Export Plug-In . SVG Version: 6.00 Build 0)  -->
<svg version="1.1" id="Camada_1" xmlns="http://www.w3.org/2000/svg" xmlns:xlink="http://www.w3.org/1999/xlink" x="0px" y="0px"
	 viewBox="0 0 87 25" style="enable-background:new 0 0 87 25;" xml:space="preserve">
<style type="text/css">
	.st0{clip-path:url(#SVGID_2_);}
	.st1{fill:#FFFFFF;}
	.st2{clip-path:url(#SVGID_4_);}
	.st3{clip-path:url(#SVGID_6_);}
</style>
<g>
	<defs>
		<path id="SVGID_1_" d="M19.3,8.4c-8.1,2.2-12.7,3-15.4,3.4c-0.1,0-0.2,0.1-0.2,0.2c0,0,0,0,0,0.1l6,11.5c0.1,0.1,0.2,0.1,0.3,0.1
			c0,0,0.1-0.1,0.1-0.1l6-11.4c0.1-0.1,0-0.2-0.1-0.3c0,0-0.1,0-0.1,0c0,0,0,0-0.1,0l-3.7,1.2c0,0-0.1,0-0.1,0
			c-0.2,0-0.3-0.3-0.1-0.4l7.5-3.9C19.6,8.7,19.5,8.4,19.3,8.4C19.3,8.4,19.3,8.4,19.3,8.4"/>
	</defs>
	<use xlink:href="#SVGID_1_"  style="overflow:visible;fill:#FFFFFF;"/>
	<clipPath id="SVGID_2_">
		<use xlink:href="#SVGID_1_"  style="overflow:visible;"/>
	</clipPath>
	<g class="st0">
		<rect x="3.7" y="8.4" class="st1" width="16" height="15.3"/>
	</g>
</g>
<g>
	<defs>
		<path id="SVGID_3_" d="M20,1c0,0-5.7,2.9-10,3.7C4.5,5.9,1.4,5.9,1.4,5.9C1.3,6,1.2,6.1,1.2,6.3c0,0,0,0,0,0.1c0,0,1.7,3.5,2,3.9
			c5.7-1.2,12.3-3.6,15.4-5.3c0,0,1.7-3.5,1.7-3.5c0.1-0.1,0-0.3-0.1-0.4C20.2,1,20.1,1,20,1C20.1,1,20,1,20,1"/>
	</defs>
	<use xlink:href="#SVGID_3_"  style="overflow:visible;fill:#FFFFFF;"/>
	<clipPath id="SVGID_4_">
		<use xlink:href="#SVGID_3_"  style="overflow:visible;"/>
	</clipPath>
	<g class="st2">
		<rect x="1.2" y="1" class="st1" width="19.3" height="9.2"/>
	</g>
</g>
<g>
	<defs>
		<rect id="SVGID_5_" x="-0.4" y="-1.1" width="87" height="26.5"/>
	</defs>
	<clipPath id="SVGID_6_">
		<use xlink:href="#SVGID_5_"  style="overflow:visible;"/>
	</clipPath>
	<g class="st3">
		<path class="st1" d="M44.3,11.1c-0.1,0-0.2,0.2-0.1,0.3c0.2,0.6,0.4,1.3,0.3,1.9c0,2.7-1.6,4.2-3.6,4.2c-1.9,0-3.6-1.5-3.6-4.2
			c0-2.6,1.6-4.2,3.6-4.2c0.4,0,0.8,0.1,1.2,0.2c0.1,0,0.2,0,0.3-0.1c0,0,0,0,0,0L43,7c0-0.1,0-0.2-0.2-0.3
			c-0.6-0.2-1.2-0.3-1.9-0.3c-3.5,0-6.5,2.5-6.5,6.8c0,4.4,3,6.8,6.5,6.8c3.5,0,6.5-2.5,6.5-6.8c0-1.1-0.2-2.1-0.6-3
			c0-0.1-0.2-0.2-0.3-0.1L44.3,11.1z"/>
		<path class="st1" d="M46.3,9.1c-0.5-0.8-1.3-1.4-2.1-1.9c-0.1-0.1-0.2,0-0.3,0.1c0,0,0,0,0,0.1l-0.7,3c0,0.1,0,0.2,0.2,0.3
			c0,0,0.1,0,0.1,0l2.7-1.2C46.3,9.4,46.3,9.3,46.3,9.1C46.3,9.2,46.3,9.1,46.3,9.1"/>
		<path class="st1" d="M70,6.7H59.9c-0.1,0-0.2,0.1-0.2,0.2v2c0,0.1,0.1,0.2,0.2,0.2l3.2,0c0.2,0,0.3,0.1,0.4,0.2c0,0,0,0.1,0,0.1
			v10.2c0,0.1,0.1,0.2,0.2,0.2l2.4,0c0.1,0,0.2-0.1,0.2-0.2c0,0,0,0,0,0V9.6c0-0.2,0.2-0.4,0.4-0.4H70c0.1,0,0.2-0.1,0.2-0.2v-2
			C70.2,6.8,70.1,6.7,70,6.7"/>
		<path class="st1" d="M78.8,13.2C78.8,13.1,78.8,13.1,78.8,13.2c0-0.1,0-0.1,0-0.2c0-0.1,0-0.2,0.1-0.2L82.4,7
			c0.1-0.1,0-0.2-0.1-0.3c0,0-0.1,0-0.1,0l-2.6,0c-0.1,0-0.2,0-0.2,0.1l-2.4,3.9c-0.1,0.1-0.2,0.1-0.3,0.1c0,0-0.1,0-0.1-0.1
			l-2.4-3.9c0-0.1-0.1-0.1-0.2-0.1h-2.7c-0.1,0-0.2,0.1-0.2,0.2c0,0,0,0.1,0,0.1l3.7,5.9c0,0.1,0.1,0.1,0.1,0.2c0,0.1,0,0.1-0.1,0.2
			l0,0L71,19.6c-0.1,0.1,0,0.2,0.1,0.3c0,0,0.1,0,0.1,0l2.6,0c0.1,0,0.2,0,0.2-0.1l2.7-4.3c0.1-0.1,0.2-0.1,0.3-0.1
			c0,0,0.1,0,0.1,0.1l2.6,4.3c0,0.1,0.1,0.1,0.2,0.1l2.7,0c0.1,0,0.2-0.1,0.2-0.2c0,0,0-0.1,0-0.1L78.8,13.2z"/>
		<path class="st1" d="M56.8,13.9L56.8,13.9L56.8,13.9"/>
		<path class="st1" d="M56.5,14.4C56.5,14.3,56.4,14.3,56.5,14.4c-0.1-0.3,0.1-0.4,0.2-0.5l0.1-0.1l0,0l0,0c0.3-0.2,0.6-0.4,0.9-0.7
			c0.7-0.8,1-1.6,1-2.7c0-2.3-1.8-3.8-4.2-3.8l-5.4,0c-0.1,0-0.2,0.1-0.2,0.2v12.8c0,0.1,0.1,0.2,0.2,0.2h2.3c0.1,0,0.2-0.1,0.2-0.2
			c0,0,0,0,0,0v-4.8c0-0.2,0.2-0.4,0.4-0.4h1.1c0.1,0,0.2,0.1,0.3,0.2l0,0l2.9,5.2c0,0.1,0.1,0.1,0.2,0.1h2.7c0.1,0,0.2-0.1,0.2-0.2
			c0,0,0-0.1,0-0.1L56.5,14.4z M54.3,12h-2.2c-0.2,0-0.4-0.2-0.4-0.4c0,0,0,0,0,0V9.4c0-0.1,0.1-0.2,0.2-0.2h2.3
			c0.9,0,1.6,0.5,1.6,1.4C55.8,11.5,55.2,12,54.3,12"/>
		<path class="st1" d="M31.5,6.8l-2.7,6.8c0,0,0,0,0,0c-0.1,0.1-0.1,0.1-0.2,0c0,0,0,0,0-0.1l-2.7-6.8c0-0.1-0.1-0.1-0.2-0.1l-3.2,0
			c-0.1,0-0.2,0.1-0.2,0.2c0,0,0,0,0,0.1l6.1,13.8c0,0.1,0.1,0.1,0.2,0.1c0,0,0.1,0,0.1-0.1l6.1-13.8c0-0.1,0-0.2-0.1-0.2
			c0,0,0,0-0.1,0l-3.1,0C31.6,6.7,31.5,6.7,31.5,6.8"/>
	</g>
</g>
</svg>
